<?xml version="1.0" encoding="UTF-8"?>
<svg width="350px" height="50px" viewBox="0 0 350 50" version="1.1" xmlns="http://www.w3.org/2000/svg" xmlns:xlink="http://www.w3.org/1999/xlink">
    <title>numbers-logo-r</title>
    <g id="Phase-1.3---$75" stroke="none" stroke-width="1" fill="none" fill-rule="evenodd">
        <g id="numbers-logo-r">
            <path d="M84.9911431,49.2345018 L77.3159453,49.2345018 C76.670164,49.2345018 76.2010999,49.0908893 75.9109347,48.8014883 C75.6207695,48.5120874 75.4767777,48.0442588 75.4767777,47.3980025 L75.4767777,14.3366625 C75.4767777,13.6904062 75.6207695,13.2225776 75.9109347,12.9331767 C76.2010999,12.6459517 76.670164,12.5001632 77.3159453,12.5001632 L82.6370958,12.5001632 C83.2850587,12.5001632 83.8392089,12.6024327 84.3017279,12.8069717 C84.7620652,13.0115108 85.2136758,13.3683661 85.6565596,13.8775377 L95.5810833,25.2033423 L95.5810833,10.1697239 C95.5810833,9.52346759 95.7250751,9.05563897 96.0152403,8.76623801 C96.3054056,8.47901299 96.772288,8.33322454 97.4224327,8.33322454 L105.09763,8.33322454 C105.743412,8.33322454 106.212476,8.47901299 106.500459,8.76623801 C106.792806,9.05563897 106.936798,9.52346759 106.936798,10.1697239 L106.936798,47.3980025 C106.936798,48.0442588 106.792806,48.5120874 106.500459,48.8014883 C106.212476,49.0908893 105.743412,49.2345018 105.09763,49.2345018 L97.4224327,49.2345018 C96.772288,49.2345018 96.3054056,49.0908893 96.0152403,48.8014883 C95.7250751,48.5120874 95.5810833,48.0442588 95.5810833,47.3980025 L95.5810833,41.1225711 L86.8324924,30.5626999 L86.8324924,47.3980025 C86.8324924,48.0442588 86.6863189,48.5120874 86.4005171,48.8014883 C86.1081701,49.0908893 85.639106,49.2345018 84.9911431,49.2345018" id="Fill-1" fill="#231F20"></path>
            <path d="M145.354021,39.5913571 C145.354021,41.158039 145.127125,42.5767565 144.666787,43.8518615 C144.204268,45.1269665 143.386133,46.217116 142.2102,47.1179581 C141.032086,48.0188002 139.419814,48.723807 137.375568,49.2351546 C135.326957,49.7443262 132.719834,49.998912 129.547651,49.998912 C126.375469,49.998912 123.766164,49.7443262 121.721917,49.2351546 C119.673307,48.723807 118.063217,48.0188002 116.885102,47.1179581 C115.709169,46.217116 114.891034,45.1269665 114.430697,43.8518615 C113.97036,42.5767565 113.741282,41.158039 113.741282,39.5913571 L113.741282,6.00126205 C113.741282,5.35718171 113.885274,4.88935309 114.175439,4.59995213 C114.465604,4.31055117 114.93685,4.16693866 115.582631,4.16693866 L123.613445,4.16693866 C124.259226,4.16693866 124.730472,4.31055117 125.020637,4.59995213 C125.308621,4.88935309 125.454794,5.35718171 125.454794,6.00126205 L125.454794,37.6025415 C125.454794,38.281437 125.712234,38.8515351 126.220569,39.31066 C126.735448,39.7697848 127.876474,39.9982592 129.650191,39.9982592 C131.456633,39.9982592 132.617294,39.7697848 133.12781,39.31066 C133.640508,38.8515351 133.895767,38.281437 133.895767,37.6025415 L133.895767,1.83432339 C133.895767,1.192419 134.039758,0.722414431 134.329924,0.433013469 C134.620089,0.143612507 135.089153,0 135.739298,0 L143.512671,0 C144.160634,0 144.629699,0.143612507 144.922045,0.433013469 C145.210029,0.722414431 145.354021,1.192419 145.354021,1.83432339 L145.354021,39.5913571 Z" id="Fill-3" fill="#B3181D"></path>
            <path d="M161.623127,49.2345018 L154.00029,49.2345018 C153.352327,49.2345018 152.883263,49.0908893 152.593098,48.8014883 C152.305114,48.5120874 152.158941,48.0442588 152.158941,47.3980025 L152.158941,14.3366625 C152.158941,13.6904062 152.305114,13.2225776 152.593098,12.9331767 C152.883263,12.6459517 153.352327,12.5001632 154.00029,12.5001632 L162.236183,12.5001632 C162.779425,12.5001632 163.231036,12.6198403 163.591015,12.8570185 C163.948813,13.0963727 164.282612,13.4858672 164.588049,14.029854 L169.195786,22.3484997 C169.363776,22.6531323 169.507768,22.8750789 169.627761,23.0099876 C169.747754,23.1470723 169.911381,23.2145266 170.114279,23.2145266 L170.574616,23.2145266 C170.777513,23.2145266 170.94114,23.1470723 171.061134,23.0099876 C171.178945,22.8750789 171.322937,22.6531323 171.495291,22.3484997 L176.048485,14.029854 C176.353922,13.4858672 176.687721,13.0963727 177.045519,12.8570185 C177.403317,12.6198403 177.854927,12.5001632 178.400351,12.5001632 L186.688604,12.5001632 C187.336567,12.5001632 187.805631,12.6459517 188.095796,12.9331767 C188.385962,13.2225776 188.529953,13.6904062 188.529953,14.3366625 L188.529953,47.3980025 C188.529953,48.0442588 188.385962,48.5120874 188.095796,48.8014883 C187.805631,49.0908893 187.336567,49.2345018 186.688604,49.2345018 L178.810509,49.2345018 C178.162546,49.2345018 177.6913,49.0908893 177.403317,48.8014883 C177.115333,48.5120874 176.966978,48.0442588 176.966978,47.3980025 L176.966978,29.4377353 L173.949696,34.999456 C173.644259,35.5804339 173.277734,35.9960398 172.850122,36.2506256 C172.424692,36.5052114 171.885814,36.6335923 171.240032,36.6335923 L169.195786,36.6335923 C168.545641,36.6335923 168.008944,36.5052114 167.581332,36.2506256 C167.15372,35.9960398 166.787196,35.5804339 166.483941,34.999456 L163.464477,29.4377353 L163.464477,47.3980025 C163.464477,48.0442588 163.318303,48.5120874 163.03032,48.8014883 C162.740155,49.0908893 162.268909,49.2345018 161.623127,49.2345018" id="Fill-5" fill="#231F20"></path>
            <path d="M207.099874,34.5403312 L207.099874,40.5611768 L213.751858,40.5611768 C214.397639,40.5611768 214.881975,40.3914529 215.207047,40.0498292 C215.532119,39.7103814 215.691383,39.2012098 215.691383,38.5201384 L215.691383,36.5313228 C215.691383,35.8524273 215.532119,35.3476075 215.207047,35.0255674 C214.881975,34.7013513 214.397639,34.5403312 213.751858,34.5403312 L207.099874,34.5403312 Z M207.099874,21.1734883 L207.099874,26.6829863 L211.447989,26.6829863 C212.095952,26.6829863 212.58247,26.5154383 212.907542,26.1716387 C213.230433,25.8343669 213.39406,25.3251953 213.39406,24.6419479 L213.39406,23.2145266 C213.39406,22.5334552 213.230433,22.0242836 212.907542,21.6848358 C212.58247,21.3453881 212.095952,21.1734883 211.447989,21.1734883 L207.099874,21.1734883 Z M217.074577,49.2345018 L197.430608,49.2345018 C196.782645,49.2345018 196.315763,49.0908893 196.023416,48.8014883 C195.735433,48.5120874 195.591441,48.0442588 195.591441,47.3980025 L195.591441,14.3366625 C195.591441,13.6904062 195.735433,13.2225776 196.023416,12.9331767 C196.315763,12.6437757 196.782645,12.5001632 197.430608,12.5001632 L213.751858,12.5001632 C217.09203,12.5001632 219.566071,13.1377157 221.167434,14.4128207 C222.770979,15.6879257 223.573842,17.6528059 223.573842,20.3052854 L223.573842,22.7554018 C223.573842,24.1828231 223.325129,25.3491307 222.829884,26.2499728 C222.33464,27.1508149 221.577592,27.8231825 220.552196,28.2648998 C222.736071,28.4694388 224.35707,29.2179646 225.415191,30.5083012 C226.471131,31.8029898 226.999101,33.6895359 226.999101,36.1744674 L226.999101,40.8679853 C226.999101,43.7250038 226.189692,45.8334965 224.568694,47.1934635 C222.949877,48.5534304 220.451838,49.2345018 217.074577,49.2345018 L217.074577,49.2345018 Z" id="Fill-7" fill="#231F20"></path>
            <path d="M258.254478,49.2345018 L234.517653,49.2345018 C233.86969,49.2345018 233.400626,49.0908893 233.112642,48.8014883 C232.822477,48.5120874 232.676303,48.0442588 232.676303,47.3980025 L232.676303,14.3366625 C232.676303,13.6904062 232.822477,13.2225776 233.112642,12.9331767 C233.400626,12.6459517 233.86969,12.5001632 234.517653,12.5001632 L258.254478,12.5001632 C258.904623,12.5001632 259.373687,12.6459517 259.663852,12.9331767 C259.951836,13.2225776 260.098009,13.6904062 260.098009,14.3366625 L260.098009,20.3052854 C260.098009,20.9515417 259.951836,21.4215462 259.663852,21.7109472 C259.373687,21.9981722 258.904623,22.1417847 258.254478,22.1417847 L244.134558,22.1417847 L244.134558,26.0693692 L254.113624,26.0693692 C254.759405,26.0693692 255.228469,26.2173336 255.518634,26.5045586 C255.8088,26.7939596 255.952791,27.2617882 255.952791,27.9080445 L255.952791,33.3674957 C255.952791,34.013752 255.8088,34.4815806 255.518634,34.7709816 C255.228469,35.0582066 254.759405,35.203995 254.113624,35.203995 L244.134558,35.203995 L244.134558,39.5907044 L258.254478,39.5907044 C258.904623,39.5907044 259.373687,39.7386688 259.663852,40.0258938 C259.951836,40.3131188 260.098009,40.7831234 260.098009,41.4293796 L260.098009,47.3980025 C260.098009,48.0442588 259.951836,48.5120874 259.663852,48.8014883 C259.373687,49.0908893 258.904623,49.2345018 258.254478,49.2345018" id="Fill-9" fill="#231F20"></path>
            <path d="M277.693804,21.6844006 L277.693804,28.2144178 L281.531402,28.2144178 C282.41717,28.2144178 283.012772,27.9859434 283.320391,27.5268185 C283.62801,27.0676937 283.78291,26.4975956 283.78291,25.8143482 L283.78291,24.0822943 C283.78291,23.4012229 283.62801,22.8311247 283.320391,22.3719999 C283.012772,21.9128751 282.41717,21.6844006 281.531402,21.6844006 L277.693804,21.6844006 Z M275.852454,49.2340666 L267.974359,49.2340666 C267.326396,49.2340666 266.857332,49.0904541 266.567167,48.8010532 C266.279183,48.5116522 266.13301,48.0438236 266.13301,47.3975673 L266.13301,14.3362273 C266.13301,13.6899711 266.279183,13.2221424 266.567167,12.9349174 C266.857332,12.6455165 267.326396,12.499728 267.974359,12.499728 L285.009022,12.499728 C288.829167,12.499728 291.464653,13.2917727 292.913297,14.8715103 C294.361942,16.4534239 295.086264,18.503166 295.086264,21.0185608 L295.086264,23.3664077 C295.086264,24.796005 294.87464,26.0123594 294.44921,27.013295 C294.019416,28.0185826 293.279822,28.740997 292.221701,29.1827143 C294.065232,29.3872533 295.55751,30.137955 296.698536,31.4304676 C297.839561,32.7208042 298.413347,34.4376265 298.413347,36.5809344 L298.413347,47.3975673 C298.413347,48.0438236 298.267173,48.5116522 297.97919,48.8010532 C297.686843,49.0904541 297.217779,49.2340666 296.569816,49.2340666 L288.643723,49.2340666 C287.993579,49.2340666 287.524514,49.0904541 287.234349,48.8010532 C286.944184,48.5116522 286.800192,48.0438236 286.800192,47.3975673 L286.800192,39.5902692 C286.800192,38.8439193 286.654019,38.2912288 286.366035,37.9343734 C286.07587,37.5775181 285.571899,37.3990905 284.856303,37.3990905 L277.693804,37.3990905 L277.693804,47.3975673 C277.693804,48.0438236 277.549812,48.5116522 277.259647,48.8010532 C276.969481,49.0904541 276.500417,49.2340666 275.852454,49.2340666 L275.852454,49.2340666 Z" id="Fill-11" fill="#231F20"></path>
            <path d="M321.227534,49.2345018 L305.063367,49.2345018 C304.415404,49.2345018 303.94634,49.0908893 303.656174,48.8014883 C303.363827,48.5120874 303.222017,48.0442588 303.222017,47.3980025 L303.222017,41.4293796 C303.222017,40.7831234 303.363827,40.3131188 303.656174,40.0258938 C303.94634,39.7386688 304.415404,39.5907044 305.063367,39.5907044 L318.823308,39.5907044 C319.266191,39.5907044 319.599991,39.4470918 319.820342,39.1576909 C320.042874,38.8682899 320.154141,38.5201384 320.154141,38.1132363 C320.154141,37.5344344 320.042874,37.1101247 319.820342,36.8381313 C319.599991,36.5661379 319.266191,36.4116457 318.823308,36.3790065 L311.150292,35.3062646 C308.763519,34.9668168 306.843629,34.1834759 305.394984,32.9605936 C303.94634,31.7355354 303.222017,29.694497 303.222017,26.8353026 L303.222017,21.4781209 C303.222017,18.5884631 304.160146,16.3689971 306.03422,14.8218987 C307.910477,13.2748004 310.502329,12.5001632 313.811958,12.5001632 L328.134776,12.5001632 C328.782739,12.5001632 329.251803,12.6459517 329.541968,12.9331767 C329.829951,13.2225776 329.976125,13.6904062 329.976125,14.3366625 L329.976125,20.4075549 C329.976125,21.0559871 329.829951,21.5238157 329.541968,21.8088648 C329.251803,22.1004417 328.782739,22.2462302 328.134776,22.2462302 L316.216184,22.2462302 C315.771118,22.2462302 315.430774,22.3898427 315.190788,22.6792436 C314.952983,22.9686446 314.83299,23.3342037 314.83299,23.775921 C314.83299,24.2176382 314.952983,24.5919011 315.190788,24.8965337 C315.430774,25.2033423 315.771118,25.3752421 316.216184,25.4078813 L323.836839,26.4305764 C326.223612,26.7700242 328.152229,27.5511892 329.618327,28.7762474 C331.084425,29.9991296 331.817474,32.0423439 331.817474,34.8971865 L331.817474,40.2543682 C331.817474,43.1462019 330.870619,45.3656679 328.979091,46.9149422 C327.087563,48.4642166 324.502256,49.2345018 321.227534,49.2345018" id="Fill-13" fill="#231F20"></path>
            <path d="M343.522979,24.9993478 C345.314808,24.9993478 346.842269,24.3665353 348.105361,23.1009103 C349.368454,21.8352853 350,20.3089181 350,18.5218088 C350,16.7405588 349.368454,15.2229806 348.105361,13.9690744 C346.842269,12.7151681 345.314808,12.088215 343.522979,12.088215 C341.7429,12.088215 340.224251,12.7151681 338.967034,13.9690744 C337.703941,15.22884 337.072395,16.7464181 337.072395,18.5218088 C337.072395,20.3147775 337.698066,21.8411447 338.949409,23.1009103 C340.206627,24.3665353 341.73115,24.9993478 343.522979,24.9993478 Z M343.522979,24.1116525 C341.977894,24.1116525 340.664865,23.5667306 339.583893,22.4768869 C338.508795,21.3870431 337.971247,20.0686838 337.971247,18.5218088 C337.971247,16.9866525 338.511733,15.6770822 339.592705,14.5930978 C340.679552,13.5032541 341.989643,12.9583322 343.522979,12.9583322 C345.062189,12.9583322 346.375218,13.5032541 347.462065,14.5930978 C348.543037,15.6770822 349.083524,16.9866525 349.083524,18.5218088 C349.083524,20.0686838 348.543037,21.3870431 347.462065,22.4768869 C346.381093,23.5667306 345.068064,24.1116525 343.522979,24.1116525 Z M342.165889,22.0462228 L342.165889,19.251301 L343.152864,19.251301 C343.816721,19.251301 344.280835,19.3274728 344.545203,19.4798166 C344.991691,19.7434885 345.214936,20.2854806 345.214936,21.1057931 L345.214936,21.1057931 L345.214936,21.6682931 L345.241372,21.8968088 C345.247247,21.9261056 345.253122,21.9524728 345.258997,21.9759103 L345.258997,21.9759103 L345.276621,22.0462228 L346.448654,22.0462228 L346.404592,21.9583322 C346.375218,21.8997385 346.354656,21.7766916 346.342907,21.5891916 C346.331157,21.4016916 346.325282,21.2259103 346.325282,21.0618478 L346.325282,21.0618478 L346.325282,20.5432931 C346.325282,20.1858713 346.196035,19.8196603 345.937542,19.4446603 C345.679049,19.0696603 345.270747,18.838215 344.712636,18.7503244 C345.15325,18.6800119 345.496928,18.5657541 345.743672,18.407551 C346.207785,18.1087228 346.439842,17.6429025 346.439842,17.01009 C346.439842,16.119465 346.072663,15.5218088 345.338307,15.2171213 C344.927068,15.0471994 344.280835,14.9622385 343.399607,14.9622385 L343.399607,14.9622385 L340.914546,14.9622385 L340.914546,22.0462228 L342.165889,22.0462228 Z M343.29386,18.3811838 L342.165889,18.3811838 L342.165889,15.8147775 L343.232174,15.8147775 C343.925406,15.8147775 344.429174,15.9026681 344.743479,16.0784494 C345.057783,16.2542306 345.214936,16.5999338 345.214936,17.1155588 C345.214936,17.6604806 344.971129,18.0296213 344.483517,18.2229806 C344.219149,18.3284494 343.822596,18.3811838 343.29386,18.3811838 L343.29386,18.3811838 Z" id="®" fill="#000000" fill-rule="nonzero"></path>
            <path d="M54.7626887,26.8566268 C54.7626887,27.1264443 54.7016013,27.3222795 54.5816081,27.4419566 C54.4594333,27.5616337 54.2630809,27.6225602 53.9947326,27.6225602 L48.1237954,27.6225602 L48.1237954,29.2566965 L52.2711947,29.2566965 C52.539543,29.2566965 52.7358954,29.315447 52.8580703,29.4373001 C52.9780634,29.5548012 53.0391508,29.7506365 53.0391508,30.018278 L53.0391508,32.2899667 C53.0391508,32.5576082 52.9780634,32.7534434 52.8580703,32.8731205 C52.7358954,32.9927976 52.539543,33.0537241 52.2711947,33.0537241 L48.1237954,33.0537241 L48.1237954,34.8793437 L53.9947326,34.8793437 C54.2630809,34.8793437 54.4594333,34.9402703 54.5816081,35.0599473 C54.7016013,35.1796244 54.7626887,35.3732837 54.7626887,35.6431012 L54.7626887,38.1258568 C54.7626887,38.3934983 54.7016013,38.5893335 54.5816081,38.7090106 C54.4594333,38.8286877 54.2630809,38.8874383 53.9947326,38.8874383 L44.1247512,38.8874383 C43.8542212,38.8874383 43.6600504,38.8286877 43.5378756,38.7090106 C43.4178825,38.5893335 43.356795,38.3934983 43.356795,38.1258568 L43.356795,24.3738712 C43.356795,24.1062297 43.4178825,23.9103945 43.5378756,23.7928934 C43.6600504,23.6710403 43.8542212,23.6122897 44.1247512,23.6122897 L53.9947326,23.6122897 C54.2630809,23.6122897 54.4594333,23.6710403 54.5816081,23.7928934 C54.7016013,23.9103945 54.7626887,24.1062297 54.7626887,24.3738712 L54.7626887,26.8566268 Z M40.4224173,38.1258568 C40.4224173,38.3934983 40.3613299,38.5893335 40.2413367,38.7090106 C40.1213436,38.8286877 39.9249912,38.8874383 39.6566429,38.8874383 L36.3579223,38.8874383 C36.089574,38.8874383 35.8954033,38.8286877 35.7732284,38.7090106 C35.6532353,38.5893335 35.5943295,38.3934983 35.5943295,38.1258568 L35.5943295,33.4149313 L32.0403508,33.4149313 L32.0403508,38.1258568 C32.0403508,38.3934983 31.9792634,38.5893335 31.8592703,38.7090106 C31.7370954,38.8286877 31.540743,38.8874383 31.2723947,38.8874383 L27.9758558,38.8874383 C27.7075075,38.8874383 27.5111551,38.8286877 27.391162,38.7090106 C27.2711688,38.5893335 27.2100814,38.3934983 27.2100814,38.1258568 L27.2100814,24.3738712 C27.2100814,24.1062297 27.2711688,23.9103945 27.391162,23.7928934 C27.5111551,23.6710403 27.7075075,23.6122897 27.9758558,23.6122897 L31.2723947,23.6122897 C31.540743,23.6122897 31.7370954,23.6710403 31.8592703,23.7928934 C31.9792634,23.9103945 32.0403508,24.1062297 32.0403508,24.3738712 L32.0403508,28.9803512 L35.5943295,28.9803512 L35.5943295,24.3738712 C35.5943295,24.1062297 35.6532353,23.9103945 35.7732284,23.7928934 C35.8954033,23.6710403 36.089574,23.6122897 36.3579223,23.6122897 L39.6566429,23.6122897 C39.9249912,23.6122897 40.1213436,23.6710403 40.2413367,23.7928934 C40.3613299,23.9103945 40.4224173,24.1062297 40.4224173,24.3738712 L40.4224173,38.1258568 Z M25.1461993,26.9414888 C25.1461993,27.2113062 25.0851119,27.4071415 24.9673005,27.5268185 C24.8451256,27.6464956 24.6487732,27.7074222 24.3804249,27.7074222 L21.2540581,27.7074222 L21.2540581,38.1258568 C21.2540581,38.3934983 21.190789,38.5893335 21.0729776,38.7090106 C20.9508027,38.8286877 20.756632,38.8874383 20.486102,38.8874383 L17.041208,38.8874383 C16.770678,38.8874383 16.5765073,38.8286877 16.4543324,38.7090106 C16.336521,38.5893335 16.2754336,38.3934983 16.2754336,38.1258568 L16.2754336,27.7074222 L13.1468851,27.7074222 C12.8785368,27.7074222 12.6821843,27.6464956 12.5621912,27.5268185 C12.4421981,27.4071415 12.3811106,27.2113062 12.3811106,26.9414888 L12.3811106,24.3738712 C12.3811106,24.1062297 12.4421981,23.9103945 12.5621912,23.7928934 C12.6821843,23.6710403 12.8785368,23.6122897 13.1468851,23.6122897 L24.3804249,23.6122897 C24.6487732,23.6122897 24.8451256,23.6710403 24.9673005,23.7928934 C25.0851119,23.9103945 25.1461993,24.1062297 25.1461993,24.3738712 L25.1461993,26.9414888 Z M67.1437993,21.875884 L67.1437993,18.5271014 C63.8058083,18.5271014 61.1005083,15.828927 61.1005083,12.499728 L6.04329101,12.499728 C6.04329101,15.828927 3.33799106,18.5271014 0,18.5271014 L0,21.875884 C1.11266369,21.875884 2.01370311,22.7745501 2.01370311,23.8842831 C2.01370311,24.9940161 1.11266369,25.8926823 0,25.8926823 L0,29.2414648 C1.11266369,29.2414648 2.01370311,30.140131 2.01370311,31.25204 C2.01370311,32.359597 1.11266369,33.2582632 0,33.2582632 L0,36.6070457 C1.11266369,36.6070457 2.01370311,37.5078878 2.01370311,38.6154449 C2.01370311,39.7251779 1.11266369,40.623844 0,40.623844 L0,43.9726266 C3.33799106,43.9726266 6.04329101,46.670801 6.04329101,50 L61.1005083,50 C61.1005083,46.670801 63.8058083,43.9726266 67.1437993,43.9726266 L67.1437993,40.623844 C66.0311356,40.623844 65.1279145,39.7251779 65.1279145,38.6154449 C65.1279145,37.5078878 66.0311356,36.6070457 67.1437993,36.6070457 L67.1437993,33.2582632 C66.0311356,33.2582632 65.1279145,32.359597 65.1279145,31.25204 C65.1279145,30.140131 66.0311356,29.2414648 67.1437993,29.2414648 L67.1437993,25.8926823 C66.0311356,25.8926823 65.1279145,24.9940161 65.1279145,23.8842831 C65.1279145,22.7745501 66.0311356,21.875884 67.1437993,21.875884 L67.1437993,21.875884 Z" id="Fill-15" fill="#B3181D"></path>
        </g>
    </g>
</svg>